<?xml version="1.0" encoding="UTF-8"?>
<svg id="Layer_1" data-name="Layer 1" xmlns="http://www.w3.org/2000/svg" viewBox="0 0 2554.66 1465.94">
  <defs>
    <style>
      .cls-1 {
        fill: #fff;
      }
    </style>
  </defs>
  <rect width="2554.66" height="1465.94"/>
  <path class="cls-1" d="M1275.24,610.04l-1.69-15.25-8.44-75.61-39.37-8.19-15.25-3.15v71.94h30.27v30.27h34.49,0ZM1210.46,446v60.47l15.31-2.94,39.81-7.63,7.93-38.94,2.21-10.97h-65.28,0ZM1278.59,446l2.34,10.92,8.31,38.91,39.73,7.86,15.25,3.01v-60.7h-65.63,0ZM1329,511.15l-39.31,7.92-8.61,75.72-1.73,15.25h34.61v-30.27h30.29v-71.69l-15.23,3.07h-.02,0ZM1283.69,627.6v12.7h-12.7v-12.7h12.7ZM1162.6,657.89v101.64c0,.65,0,1.25-.04,1.84h-21.37c-7.5-.1-21.91-1.94-34.28-12.93-3.14-2.8-10.86-10.66-14.94-23.23-1.21-3.72-2.01-7.65-2.38-11.7-.12-1.34-.21-2.65-.23-3.91v-21.49h60.56v-30.24h12.68v.02h0ZM1162.6,597.34v42.97h-30.27v30.27h-42.97v-73.24h73.24,0ZM1223.16,597.34v12.7h-42.97v-30.27h-90.82v-133.75h103.5v151.34h30.27l.02-.02h0ZM1223.17,985.69l-133.53-84.49v-145.23c1.38,1.55,3.42,3.7,5.64,5.64,17.59,15.54,37.89,17.29,45.83,17.34h82.05v206.75h.02,0s0-.01,0-.01ZM1314.01,996.15c-7.86,5.16-15.68,10.34-23.48,15.44l-13.2,8.35-9.92-6.26c-4.7-3.11-9.42-6.21-14.12-9.3-4.18-2.75-8.35-5.49-12.53-8.23v-96.13h28.14l4.7,94.98h7.56l4.64-94.98h28.15l.04,96.13h.02,0,0ZM1253.42,627.6v12.7h-30.27v24.84l-42.97-21.47v-16.06h73.24,0ZM1313.96,678.63v52.47h-128.05c-1.94.04-3.84.31-5.71.83v-68.66l55.02,27.53,5.49,2.74v-35.7h52.47c11.45,0,20.76,9.3,20.76,20.76v.02h.02,0ZM1374.5,627.6v104.38c-1.34-.36-2.74-.63-4.16-.75h-.17l-.81-.07c-.37,0-.79-.04-1.21-.04h-36.6v-52.47c0-.23,0-.46-.04-.69v-.44c-.81-17.57-13.35-32.33-30.24-36.22v-13.7h73.24-.01,0ZM1465.09,901.2l-133.53,84.43v-85.62h86.04c18.13,0,35.22-7.52,47.49-20.49v21.66l.02.02h-.01,0ZM1374.5,754.93v.69l-.04.21v.07l-.04.14v.14c-.1.53-.27,1.04-.53,1.55l-.1.19-.04.08c-.07.1-.1.23-.17.37l-.19.23c-.1.13-.17.25-.3.37l-.09.1-.09.1c-.1.13-.14.17-.14.19l-.07.04-.07.07c-.14.14-.31.31-.5.48l-.07.04-.07.04-.07.07c-.14.1-.27.17-.33.23-1.04.69-2.24,1.04-3.47,1.04h-181.75l-.17-.07h-.56s-.1-.04-.17-.07h-.12c-.53-.1-1.09-.3-1.55-.53l-.21-.21-.41-.13-.25-.14c-.1-.08-.23-.17-.33-.27-.09-.07-.14-.1-.23-.17l-.19-.19-.1-.13-.12-.1s-.07-.07-.1-.1c-.09-.1-.17-.21-.25-.31-.56-.71-.88-1.42-1.04-1.92l-.07-.17s0-.1-.04-.17l-.04-.27-.09-.21h0v-.1l-.1-.4v-.1c-.04-.25-.04-.46-.04-.65,0-.69.1-1.31.31-1.9l.12-.36c.56-1.48,1.69-2.71,3.14-3.42l.44-.19c.73-.31,1.53-.46,2.34-.46h181.6c.31,0,.63.04.94.1l.19.04s.17.04.3.07l.17.04h.09l.12.07c.1,0,.21.07.31.1.37.13.73.3,1,.44.3.17.6.4.94.65h0c.12.14.3.3.41.42l.1.1.1.1s.07.04.19.21.27.31.37.5c.17.27.31.53.46.81.1.19.14.31.19.42l.07.14v.1s.09.14.1.21l.04.13.07.14s0,.1.04.19v.1l.04.1.04.14v.07c.1.53.1.83.1.9l-.07-.04.02.02h0ZM1465.29,688.14v146.6c0,1.53-.09,3.07-.23,4.65-2.38,24.54-22.79,43.07-47.49,43.07h-25.53v-224.57h12.7v30.24h60.54ZM1465.29,447.69v133.75h-90.82v30.27h-42.94v-12.7h30.27v-151.33h103.48l.02.02h0ZM1465.29,597.34v73.24h-42.97v-30.27h-30.27v-42.97h73.24,0ZM1284.56,793.54v-16.5h31.32v16.5h-31.32ZM1329.65,823.81v-46.75h38.5c2.17,0,4.28-.3,6.26-.9.69-.21,1.34-.44,1.97-.69v21.97c-4.45,4.14-8.9,8.44-13.28,12.8-.27.27-.5.5-.71.73l-.04.04-.31.31c-3.84,3.87-7.89,8.06-12.01,12.49h-20.36v-.02l-.02.02h0ZM1268.26,778.94v12.7h-5.78c-7.86,0-15.35,2.3-21.75,6.55v-19.25h27.53ZM1374.5,821.01v61.44h-133.75v-51.49c0-11.99,9.76-21.75,21.75-21.75h51.49v30.27h42.92l1.13-1.21,1.46-1.57.6-.65c4.14-4.51,8.46-9,12.87-13.45l.53-.53.1-.1.1-.1c.17-.19.36-.36.53-.54.1-.1.21-.19.31-.31h-.04v-.02s.01,0,.01,0Z"/>
</svg>